<svg width="20" height="20" viewBox="0 0 20 20" fill="none" xmlns="http://www.w3.org/2000/svg">
<path d="M0.419143 10.614C0.139714 10.472 0 10.2715 0 10.0125C0 9.75355 0.139714 9.55305 0.419143 9.41103H9.39631V4.89975L9.42759 0.388471C9.62778 0.12949 9.81754 0 9.99687 0C10.2596 0 10.4598 0.150376 10.5974 0.451127V9.41103H19.5496C19.8499 9.56976 20 9.77026 20 10.0125C20 10.2548 19.8499 10.4553 19.5496 10.614H10.5974V19.5739C10.4598 19.858 10.2596 20 9.99687 20C9.7383 20 9.53811 19.858 9.39631 19.5739V10.614H0.419143Z" fill="#404040"/>
</svg>
